<svg width="1102.280029296875px" height="239.639990234375px" xmlns="http://www.w3.org/2000/svg" viewBox="-301.1400146484375 -44.8199951171875 1102.280029296875 239.639990234375" style="background: none;" preserveAspectRatio="xMidYMid"><defs><filter id="editing-hover" x="-100%" y="-100%" width="300%" height="300%"><feFlood flood-color="#052b4a" result="flood"></feFlood><feComposite operator="in" in2="SourceAlpha" in="flood" result="shadow"></feComposite><feOffset dx="-4" dy="-4.7" in="SourceGraphic" result="offset-1"></feOffset><feOffset dx="4" dy="4.7" in="shadow" result="offset-2"></feOffset><feMerge><feMergeNode in="offset-2"></feMergeNode><feMergeNode in="offset-1"></feMergeNode></feMerge></filter></defs><g filter="url(#editing-hover)"><g transform="translate(-147.09497678279877, 133.2100009918213)"><path d="M31.94 1.64L31.94 1.64Q22.93 1.64 14.86-0.41L14.86-0.41L14.86-0.41Q6.79-2.46 1.40-6.08L1.40-6.08L1.40-26.68L24.80-26.68L24.80-25.51L24.80-25.51Q24.80-19.19 30.89-19.19L30.89-19.19L30.89-19.19Q34.05-19.19 35.63-20.88L35.63-20.88L35.63-20.88Q37.21-22.58 37.21-26.21L37.21-26.21L37.21-71.84L26.68-71.84L26.68-91.03L75.82-91.03L75.82-71.84L69.97-71.84L69.97-32.53L69.97-32.53Q69.97-15.33 59.90-6.84L59.90-6.84L59.90-6.84Q49.84 1.64 31.94 1.64L31.94 1.64ZM114.89 1.64L114.89 1.64Q98.28 1.64 88.92-7.08L88.92-7.08L88.92-7.08Q79.56-15.80 79.56-32.53L79.56-32.53L79.56-32.53Q79.56-49.26 88.92-57.97L88.92-57.97L88.92-57.97Q98.28-66.69 114.89-66.69L114.89-66.69L114.89-66.69Q131.74-66.69 140.99-57.86L140.99-57.86L140.99-57.86Q150.23-49.02 150.23-32.53L150.23-32.53L150.23-32.53Q150.23-15.80 140.87-7.08L140.87-7.08L140.87-7.08Q131.51 1.64 114.89 1.64L114.89 1.64ZM114.89-19.19L114.89-19.19Q118.29-19.19 119.98-21.00L119.98-21.00L119.98-21.00Q121.68-22.82 121.68-26.68L121.68-26.68L121.68-38.38L121.68-38.38Q121.68-42.24 119.98-44.05L119.98-44.05L119.98-44.05Q118.29-45.86 114.89-45.86L114.89-45.86L114.89-45.86Q111.50-45.86 109.80-44.05L109.80-44.05L109.80-44.05Q108.11-42.24 108.11-38.38L108.11-38.38L108.11-26.68L108.11-26.68Q108.11-22.82 109.80-21.00L109.80-21.00L109.80-21.00Q111.50-19.19 114.89-19.19L114.89-19.19ZM188.84 1.64L188.84 1.64Q172.22 1.64 162.86-7.08L162.86-7.08L162.86-7.08Q153.50-15.80 153.50-32.53L153.50-32.53L153.50-32.53Q153.50-49.26 162.86-57.97L162.86-57.97L162.86-57.97Q172.22-66.69 188.84-66.69L188.84-66.69L188.84-66.69Q205.34-66.69 212.65-58.09L212.65-58.09L212.65-58.09Q219.96-49.49 219.96-36.74L219.96-36.74L219.96-28.31L182.05-28.31L182.05-27.61L182.05-27.61Q182.05-23.28 184.63-21.24L184.63-21.24L184.63-21.24Q187.20-19.19 193.17-19.19L193.17-19.19L193.17-19.19Q200.30-19.19 206.74-20.24L206.74-20.24L206.74-20.24Q213.17-21.29 217.97-22.93L217.97-22.93L217.97-4.21L217.97-4.21Q213.88-1.99 205.98-0.18L205.98-0.18L205.98-0.18Q198.08 1.64 188.84 1.64L188.84 1.64ZM182.05-41.18L195.62-41.18L195.62-42.59L195.62-42.59Q195.62-46.57 193.93-48.32L193.93-48.32L193.93-48.32Q192.23-50.08 188.84-50.08L188.84-50.08L188.84-50.08Q185.45-50.08 183.75-48.26L183.75-48.26L183.75-48.26Q182.05-46.45 182.05-42.59L182.05-42.59L182.05-41.18ZM261.38-65.05L293.90-65.05L293.90-45.86L289.46-45.86L274.13-5.27L274.13-5.27Q268.40 10.06 261.03 17.73L261.03 17.73L261.03 17.73Q253.66 25.39 241.61 25.39L241.61 25.39L241.61 25.39Q236.69 25.39 231.66 24.39L231.66 24.39L231.66 24.39Q226.63 23.40 222.53 21.64L222.53 21.64L222.53 0.47L238.68 0.47L238.68 1.64L238.68 1.64Q238.68 4.56 241.72 4.56L241.72 4.56L241.72 4.56Q244.41 4.56 245.82 1.99L245.82 1.99L227.33-45.86L222.89-45.86L222.89-65.05L257.63-65.05L257.63-45.86L253.66-45.86L259.74-27.61L265.36-45.86L261.38-45.86L261.38-65.05ZM332.75 0L332.75-19.19L338.60-19.19L338.60-71.72L332.75-71.72L332.75-91.03L380.25-91.03L380.25-91.03Q399.79-91.03 411.31-80.32L411.31-80.32L411.31-80.32Q422.84-69.62 422.84-45.51L422.84-45.51L422.84-45.51Q422.84-21.41 411.31-10.71L411.31-10.71L411.31-10.71Q399.79 0 380.25 0L380.25 0L332.75 0ZM371.36-19.19L378.14-19.19L378.14-19.19Q382.12-19.19 384.11-21.29L384.11-21.29L384.11-21.29Q386.10-23.40 386.10-27.85L386.10-27.85L386.10-63.18L386.10-63.18Q386.10-71.84 378.14-71.84L378.14-71.84L371.36-71.84L371.36-19.19ZM438.87-64.12L425.65-64.12L423.89-91.03L440.62-91.03L438.87-64.12ZM500.29-91.03L520.07-19.19L524.75-19.19L524.75 0L478.88 0L478.88-19.19L485.90-19.19L484.03-28.55L468.12-28.55L466.25-19.19L473.27-19.19L473.27 0L433.25 0L433.25-19.19L437.93-19.19L457.70-91.03L500.29-91.03ZM475.49-64.23L470.69-40.95L481.46-40.95L476.66-64.23L475.49-64.23ZM565.46 0.12L528.26 0.12L528.26-19.19L533.40-19.19L533.40-71.84L528.26-71.84L528.26-91.03L560.31-91.03L560.31-19.19L565.46-19.19L565.46 0.12ZM632.27-19.19L637.42-19.19L637.42 0L606.53 0L606.53-7.96L606.53-7.96Q603.95-4.21 599.33-1.29L599.33-1.29L599.33-1.29Q594.71 1.64 588.04 1.64L588.04 1.64L588.04 1.64Q579.27 1.64 574.24-3.04L574.24-3.04L574.24-3.04Q569.21-7.72 569.21-16.26L569.21-16.26L569.21-16.26Q569.21-38.38 606.76-38.96L606.76-38.96L606.76-38.96Q606.41-42.94 603.72-44.40L603.72-44.40L603.72-44.40Q601.03-45.86 594.59-45.86L594.59-45.86L594.59-45.86Q589.33-45.86 583.30-44.75L583.30-44.75L583.30-44.75Q577.28-43.64 572.25-41.77L572.25-41.77L572.25-63.30L572.25-63.30Q578.45-64.82 585.70-65.75L585.70-65.75L585.70-65.75Q592.96-66.69 599.86-66.69L599.86-66.69L599.86-66.69Q617.29-66.69 624.78-60.37L624.78-60.37L624.78-60.37Q632.27-54.05 632.27-40.83L632.27-40.83L632.27-19.19ZM606.53-26.68L606.53-27.38L606.53-27.38Q601.26-27.38 598.40-25.97L598.40-25.97L598.40-25.97Q595.53-24.57 595.53-21.29L595.53-21.29L595.53-21.29Q595.53-19.30 596.76-18.08L596.76-18.08L596.76-18.08Q597.99-16.85 600.21-16.85L600.21-16.85L600.21-16.85Q603.25-16.85 604.89-19.42L604.89-19.42L604.89-19.42Q606.53-22.00 606.53-26.68L606.53-26.68ZM670.06 1.64L670.06 1.64Q657.66 1.64 651.40-4.39L651.40-4.39L651.40-4.39Q645.14-10.41 645.14-24.69L645.14-24.69L645.14-45.86L639.99-45.86L639.99-65.05L639.99-65.05Q644.44-65.05 646.66-67.33L646.66-67.33L646.66-67.33Q648.88-69.62 648.88-73.59L648.88-73.59L648.88-78.86L673.69-78.86L673.69-65.05L689.48-65.05L689.48-45.86L673.69-45.86L673.69-26.68L673.69-26.68Q673.69-22.82 675.38-21.00L675.38-21.00L675.38-21.00Q677.08-19.19 680.47-19.19L680.47-19.19L680.47-19.19Q684.92-19.19 690.18-20.24L690.18-20.24L690.18-1.87L690.18-1.87Q686.91-0.59 681.35 0.53L681.35 0.53L681.35 0.53Q675.79 1.64 670.06 1.64L670.06 1.64ZM743.89-66.69L743.89-66.69Q746.23-66.69 748.33-66.22L748.33-66.22L748.33-66.22Q750.44-65.75 751.84-65.05L751.84-65.05L751.84-42.71L751.84-42.71Q747.05-44.69 741.55-44.69L741.55-44.69L741.55-44.69Q734.18-44.69 730.20-40.83L730.20-40.83L730.20-40.83Q726.22-36.97 726.22-29.37L726.22-29.37L726.22-19.19L736.75-19.19L736.75 0L694.16 0L694.16-19.19L699.31-19.19L699.31-45.86L694.16-45.86L694.16-65.05L726.22-65.05L726.22-56.51L726.22-56.51Q729.50-61.43 733.71-64.06L733.71-64.06L733.71-64.06Q737.92-66.69 743.89-66.69L743.89-66.69ZM785.07-71.49L761.20-71.49L761.20-91.03L785.07-91.03L785.07-71.49ZM792.79 0L755.59 0L755.59-19.19L760.73-19.19L760.73-45.86L755.59-45.86L755.59-65.05L787.64-65.05L787.64-19.19L792.79-19.19L792.79 0Z" fill="#ffd5af"></path></g></g><style>text {
  font-size: 64px;
  font-family: Arial Black;
  dominant-baseline: central;
  text-anchor: middle;
}</style></svg>